<svg xmlns="http://www.w3.org/2000/svg" width="128" height="128" viewBox="-25 0 553.84 364.21">
    <g fill="white">
        <g id="controller">
            <path
                id="pad_l"
                d="M188.46,150.84c-9.86-2.65-51.23-8.49-60.19-7.18-10.16,1.49-20,10.13-23.02,19.9-3.05,9.85-9.02,53.64-7.45,62.92,1.79,10.58,12.25,20,22.48,22.44,10.19,2.42,49.35,8.15,58.4,6.97,11.32-1.47,21.69-11.5,24.44-22.46,2.48-9.88,8.2-49.48,7.01-58.34-1.57-11.65-10.35-21.2-21.66-24.25Z"
            ></path>
            <polygon
                id="select"
                points="149.67 34.7 172.63 34.7 172.63 30.71 172.44 30.71 172.44 30.65 149.48 30.65 149.48 34.64 149.67 34.64 149.67 34.7"
            ></polygon>
            <path id="qam"
                d="M266.8,195.28h-29.95c-3.1,1.3-.7,6.98,1,6.98h28.96c2.04,0,2.04-6.98,0-6.98Z"
            ></path>
            <path
                id="dpad"
                d="M83.26,78.85c.36.39,2.31,3.94,2.31,4.18v16.46h18.97c2.44-5.38-.28-13.19,1.21-18.25.38-1.31,4.4-4.7,5.29-4.7h15.48v-16.96h-15.48c-.69,0-5.49-4.04-5.49-4.49v-16.96l-1.5-1.5h-16.97l-1.5,1.5v14.97c0,.24-1.95,3.79-2.31,4.18-3.85,4.2-12.83,1.47-18.02,2.44l-1.2.8.5,15.59c5.41,1.66,14.65-1.68,18.72,2.74Z"
            ></path>
            <path
                id="pad_r"
                d="M364.95,143.7c-12.49.88-39.02,4.02-50.54,7.37-10.45,3.03-19.34,13.18-20.89,24.02-1.18,8.3,4.85,48.54,7.18,58.16,2.85,11.78,13.16,21.08,25.26,22.64,8.03,1.04,49.13-4.82,58.22-7.16,13.12-3.38,22.5-15.47,22.7-29,.13-8.61-6.41-51.75-9.58-59.06-5.91-13.6-18.32-17.96-32.34-16.97Z"
            ></path>
            <path
                d="M491.47,172.32c-7.53-35.78-17.72-74.47-29.76-108.95C447.81,23.52,422.52-5.78,375.89.97c-20.16,2.92-35.88.13-56.12-.3-47.42-1.01-95.57-.13-142.84,1.04-12.56.31-28.22,2.21-39.96,1.84-2.68-.08-5.55-2.2-8.19-2.59-18.9-2.78-46.03,2.5-59.7,16.69-10.52,10.93-16.29,18.23-22.19,32.71-13.27,32.6-23.9,74.46-31.72,108.99-12.04,53.16-42.28,198.37,42.91,204.59,39.15,2.86,35.61-22.86,46.98-50.91,12.49-30.78,27.17-29.88,57.86-30.99,56.49-2.03,121.32-2.04,177.81,0,9.95.36,28.71.84,37.39,4.54,25.25,10.78,22.41,54.89,39.31,70.97,10.56,10.06,34.92,7.05,47.55,1.83,58.17-24.04,36.52-139.44,26.49-187.07ZM437.43,83.47c-20.64,2.19-24.95-28.39-4.64-31.63,21.54-3.44,24.9,29.49,4.64,31.63ZM416.14,108.04c-22.26,11.5-33.03-25.22-11.31-29.26,19.83-3.69,26.89,21.21,11.31,29.26ZM407.87,24.87c19.29-1.54,23.49,29.98,2.7,31.73-22.37,1.89-23.58-30.07-2.7-31.73ZM378.87,51.85c22.25-3.61,26.1,29.32,4.65,31.62-20.31,2.18-23.65-28.54-4.65-31.62ZM330.92,25.88c3.34-.73,20.2-.74,23.53,0,7.4,1.64,6.53,12.55.19,13.73-2.79.52-22.37.49-24.72-.18-5.15-1.48-5.82-12.05,1-13.54ZM252.06,26.63c3.41,0,6.17,2.76,6.17,6.17s-2.76,6.17-6.17,6.17-6.17-2.76-6.17-6.17,2.76-6.17,6.17-6.17ZM251.5,45.17c10.37,0,18.77,8.4,18.77,18.77s-8.4,18.77-18.77,18.77c-8.63,0-15.86-5.78-18.09-13.64l7.19,2.97c.51,2.48,2.69,4.26,5.22,4.26,2.93,0,5.31-2.38,5.31-5.31v-.24l6.38-4.56h.15c3.9,0,7.08-3.17,7.08-7.08s-3.17-7.08-7.08-7.08-7.09,3.17-7.09,7.08v.09l-4.45,6.49-.3-.02c-1.11,0-2.14.34-2.98.92l-10.1-4.15c.81-9.67,8.88-17.27,18.77-17.27ZM246.81,68.24l-2.4-.99c.92-.34,1.95-.36,2.93.06.99.39,1.76,1.16,2.16,2.16.41.98.41,2.06,0,3.04-.81,2.03-3.19,3-5.22,2.16-.94-.39-1.65-1.11-2.05-1.95l2.29.94c1.5.62,3.23-.08,3.85-1.58.62-1.5-.09-3.21-1.56-3.83ZM252.95,59.1c-.01-2.59,2.08-4.7,4.67-4.71.01,0,.03,0,.04,0,2.6,0,4.72,2.11,4.73,4.71,0,2.61-2.12,4.73-4.73,4.73-2.6-.01-4.71-2.12-4.71-4.73ZM149.19,25.88c2.73-.63,22.14-.71,24.54,0,6.21,1.82,5.82,12.49-.82,13.74-2.75.52-22.39.48-24.73-.19-5.4-1.55-5.27-12.11,1-13.54ZM59.14,58.61c3.2-7.69,17.38-1.4,20.54-5.41,2.98-3.78-1.63-16.1,2.93-20.02,2.5-2.15,16.61-2,20.46-1.55,12.59,1.46,4.43,15.96,8.96,22.97h14.98c6.55,0,6.55,26.94,0,26.94h-14.98c-4.86,1.5,4.39,21.42-8.96,22.97-3.39.39-15.71.46-18.55-.46-7.6-2.47-1.5-16.88-4.84-21.11-3.16-4.01-17.34,2.27-20.54-5.41-.98-2.34-.95-16.62,0-18.91ZM205.74,233.04c-2.65,11.47-12.73,23.35-24.9,25.01-10.35,1.41-52.49-4.29-63.33-7.38-11.21-3.19-21.18-14.69-22.69-26.21-1.06-8.16,5.43-53.48,8.25-62.08,3.8-11.57,16.08-20.79,28.23-21.73,8.07-.62,52.75,5.95,60.64,8.69,12.22,4.25,21.3,17.45,21.33,30.36.02,10.88-4.95,42.12-7.54,53.33ZM266.74,207.2c-4.07.64-28.14.64-31.45-.39-7.01-2.2-6.73-14.63.76-16.3,3.11-.7,29.88-.78,32.53,0,6.6,1.92,7.26,15.26-1.85,16.7ZM408.97,224.6c-1.33,10.97-11.48,22.58-22.06,25.85-10.32,3.19-51.9,8.73-62.19,7.67-9.45-.97-18.61-7.66-22.99-15.94-4.95-9.35-9.79-45.59-10.46-57.4-.78-13.78,2.96-26.11,15.64-33.24,7.91-4.45,50.36-10.38,61.06-10.88,16.46-.77,30.06,9.58,33.85,25.45,2.59,10.86,8.35,48.62,7.16,58.48ZM449.03,276.59c-2.81-32.04-6.26-65.1-13.3-96.47-2.94-13.09-8.64-36.42-17.64-46.23-14.1-15.37-38.01-14.33-57.14-16.53,0,0-3.75,6.8-5.79,9.57-13.84,18.8-44.2,18.73-57.35-.56-3.14-4.61-5.3-8.83-4.99-8.84l-81.8-1.12c-8.13,22.38-35.02,32.2-54.88,17.84-6.34-4.59-9.15-9.89-13.37-16.13-18.67,1.51-43.12.64-56.73,15.26-11.34,12.19-17.78,45.27-20.95,61.88-5.25,27.46-8.27,55.46-10.47,83.33l-1.98,7.48c3.06-35.92,6.25-72.78,14.28-107.94,2.95-12.94,7.87-33.49,16.14-43.74,13.67-16.96,39.17-17.83,59.21-18.37-2.64-14.89,1.09-28.42,13.19-37.98,26.08-20.61,63.51,3.62,55.93,35.42l80.87,1c-8.47-58.73,78.52-57.68,68.94.96,21.42,2.75,45.85,1.07,60.29,20.08,10.09,13.28,16.2,44.85,19.24,61.59,5.33,29.33,8.23,59.24,10.29,88.98l-1.98-9.48Z"
            ></path>
            <path id="y"
                d="M412.11,51.13c11.18-2.92,9.04-20.97-3.53-20.97-16.11,0-12.83,25.24,3.53,20.97Z"
            ></path>
            <path id="a"
                d="M405.82,83.76c-9.73,1.97-10.53,17.58-1.79,20.28,19.6,6.04,20.24-24.02,1.79-20.28Z"
            ></path>
            <path id="b"
                d="M442.08,76.1c12.51-9.56-4.86-27.32-14.71-16.2-8.27,9.34,3.73,24.6,14.71,16.2Z"
            ></path>
            <rect id="start" x="331.2" y="30.65" width="22.97" height="3.99"></rect>
            <path
                d="M261.21,59.1c0-1.95-1.58-3.55-3.53-3.55s-3.55,1.6-3.55,3.55,1.58,3.55,3.55,3.55,3.53-1.6,3.53-3.55Z"
            ></path>
            <path id="x"
                d="M382.5,78.51c15.6-.99,12.33-24.55-2.62-21.73-13.31,2.51-10.17,22.55,2.62,21.73Z"
            ></path>
        </g>
        <g id="eyes_white" fill="white">
            <path
                class="cls-1"
                d="M160.42,121.99c20.62,21.27,54.53-9.87,33.64-32.12-20.94-22.3-54.94,10.15-33.64,32.12Z"
            ></path>
            <path
                class="cls-1"
                d="M322.96,82.78c-7.16,1.09-15.61,8.12-18.03,14.91-7.3,20.54,14.89,38.99,33.8,27.78,22.1-13.09,8.51-46.38-15.77-42.7Z"
            ></path>
        </g>
        <g id="eyes_border" fill="white">
            <path
                d="M347.82,83.89c-28.73-27.3-70.93,16.43-42.13,43.59,29.21,27.55,70.74-16.41,42.13-43.59ZM338.73,125.47c-18.91,11.2-41.09-7.25-33.8-27.78,2.41-6.79,10.87-13.82,18.03-14.91,24.28-3.69,37.87,29.6,15.77,42.7Z"
            ></path>
            <path
                d="M173.2,75.81c-37.95,4.89-34.24,64.89,9.62,59.49,35.88-4.42,30.75-64.7-9.62-59.49ZM160.42,121.99c-21.3-21.97,12.7-54.41,33.64-32.12,20.89,22.25-13.02,53.38-33.64,32.12Z"
            ></path>
        </g>
        <circle id="logo_overlay" cx="251.27" cy="63.94" r="20.07" fill="white"></circle>
    </g>
</svg>