<?xml version="1.0" encoding="UTF-8"?>
<svg xmlns="http://www.w3.org/2000/svg" viewBox="0 0 503.84 364.21">
    <g fill="currentColor">
        <g id="eyes_white" fill="var(--eyes-white-color, white)">
            <path class="cls-1"
                d="M160.42,121.99c20.62,21.27,54.53-9.87,33.64-32.12-20.94-22.3-54.94,10.15-33.64,32.12Z" />
            <path class="cls-1"
                d="M322.96,82.78c-7.16,1.09-15.61,8.12-18.03,14.91-7.3,20.54,14.89,38.99,33.8,27.78,22.1-13.09,8.51-46.38-15.77-42.7Z" />
        </g>
        <g id="eyes_border" fill="var(--eyes-border-color, black)">
            <path
                d="M347.82,83.89c-28.73-27.3-70.93,16.43-42.13,43.59,29.21,27.55,70.74-16.41,42.13-43.59ZM338.73,125.47c-18.91,11.2-41.09-7.25-33.8-27.78,2.41-6.79,10.87-13.82,18.03-14.91,24.28-3.69,37.87,29.6,15.77,42.7Z" />
            <path
                d="M173.2,75.81c-37.95,4.89-34.24,64.89,9.62,59.49,35.88-4.42,30.75-64.7-9.62-59.49ZM160.42,121.99c-21.3-21.97,12.7-54.41,33.64-32.12,20.89,22.25-13.02,53.38-33.64,32.12Z" />
        </g>
        <path
            d="M64.54,76.11l-.5-15.59,1.2-.8c5.18-.97,14.17,1.75,18.02-2.44.36-.39,2.31-3.94,2.31-4.18v-14.97l1.5-1.5h16.97l1.5,1.5v16.96c0,.45,4.8,4.49,5.49,4.49h15.48v16.96h-15.48c-.89,0-4.9,3.39-5.29,4.7-1.48,5.06,1.24,12.87-1.21,18.25h-18.97v-16.46c0-.24-1.95-3.79-2.31-4.18-4.07-4.42-13.31-1.08-18.72-2.74ZM188.46,150.84c-9.86-2.65-51.23-8.49-60.19-7.18-10.16,1.49-20,10.13-23.02,19.9-3.05,9.85-9.02,53.64-7.45,62.92,1.79,10.58,12.25,20,22.48,22.44,10.19,2.42,49.35,8.15,58.4,6.97,11.32-1.47,21.69-11.5,24.44-22.46,2.48-9.88,8.2-49.48,7.01-58.34-1.57-11.65-10.35-21.2-21.66-24.25ZM266.8,195.28h-29.95c-3.1,1.3-.7,6.98,1,6.98h28.96c2.04,0,2.04-6.98,0-6.98ZM364.95,143.7c-12.49.88-39.02,4.02-50.54,7.37-10.45,3.03-19.34,13.18-20.89,24.02-1.18,8.3,4.85,48.54,7.18,58.16,2.85,11.78,13.16,21.08,25.26,22.64,8.03,1.04,49.13-4.82,58.22-7.16,13.12-3.38,22.5-15.47,22.7-29,.13-8.61-6.41-51.75-9.58-59.06-5.91-13.6-18.32-17.96-32.34-16.97ZM464.98,359.39c-12.63,5.22-36.99,8.23-47.55-1.83-16.9-16.08-14.05-60.19-39.31-70.97-8.68-3.71-27.44-4.18-37.39-4.54-56.49-2.04-121.32-2.03-177.81,0-30.68,1.1-45.37.21-57.86,30.99-11.38,28.05-7.84,53.77-46.98,50.91C-27.11,357.72,3.12,212.5,15.17,159.35c7.82-34.52,18.44-76.39,31.72-108.99,5.9-14.48,11.66-21.78,22.19-32.71C82.74,3.45,109.87-1.82,128.77.95c2.64.39,5.51,2.51,8.19,2.59,11.74.37,27.4-1.53,39.96-1.84,47.27-1.16,95.42-2.04,142.84-1.04,20.24.43,35.96,3.22,56.12.3,46.63-6.76,71.92,22.55,85.83,62.39,12.04,34.49,22.22,73.17,29.76,108.95,10.03,47.63,31.68,163.03-26.49,187.07ZM432.79,51.83c-20.31,3.24-16,33.82,4.64,31.63,20.26-2.15,16.9-35.07-4.64-31.63ZM404.82,78.78c-21.71,4.04-10.94,40.76,11.31,29.26,15.57-8.05,8.51-32.95-11.31-29.26ZM410.58,56.6c20.79-1.75,16.58-33.27-2.7-31.73-20.88,1.67-19.67,33.62,2.7,31.73ZM383.52,83.47c21.45-2.3,17.61-35.24-4.65-31.62-19.01,3.09-15.67,33.8,4.65,31.62ZM329.92,39.42c2.35.67,21.93.7,24.72.18,6.34-1.18,7.22-12.09-.19-13.73-3.34-.74-20.19-.74-23.53,0-6.82,1.5-6.15,12.07-1,13.54ZM245.89,32.8c0,3.41,2.76,6.17,6.17,6.17s6.17-2.76,6.17-6.17-2.76-6.17-6.17-6.17-6.17,2.76-6.17,6.17ZM232.74,62.44l10.1,4.15c.84-.58,1.88-.92,2.98-.92l.3.02,4.45-6.49v-.09c0-3.9,3.19-7.08,7.09-7.08s7.08,3.17,7.08,7.08-3.17,7.08-7.08,7.08h-.15l-6.38,4.56v.24c0,2.93-2.38,5.31-5.31,5.31-2.53,0-4.71-1.78-5.22-4.26l-7.19-2.97c2.23,7.86,9.46,13.64,18.09,13.64,10.37,0,18.77-8.4,18.77-18.77s-8.4-18.77-18.77-18.77-17.96,7.6-18.77,17.27ZM248.37,72.07c-.62,1.5-2.35,2.2-3.85,1.58l-2.29-.94c.39.84,1.11,1.56,2.05,1.95,2.03.84,4.41-.13,5.22-2.16.41-.98.41-2.06,0-3.04-.39-.99-1.16-1.76-2.16-2.16-.98-.41-2.01-.39-2.93-.06l2.4.99c1.46.62,2.18,2.33,1.56,3.83ZM257.66,63.83c2.61,0,4.73-2.12,4.73-4.73-.01-2.6-2.12-4.71-4.73-4.71-.01,0-.03,0-.04,0-2.59.01-4.68,2.12-4.67,4.71,0,2.6,2.11,4.72,4.71,4.73ZM148.19,39.42c2.33.67,21.97.7,24.73.19,6.63-1.25,7.02-11.92.82-13.74-2.41-.71-21.81-.62-24.54,0-6.27,1.44-6.4,12-1,13.54ZM59.14,77.52c3.2,7.69,17.38,1.4,20.54,5.41,3.34,4.23-2.76,18.64,4.84,21.11,2.84.92,15.17.86,18.55.46,13.36-1.55,4.1-21.47,8.96-22.97h14.98c6.55,0,6.55-26.94,0-26.94h-14.98c-4.53-7.01,3.62-21.51-8.96-22.97-3.85-.45-17.96-.6-20.46,1.55-4.57,3.92.05,16.24-2.93,20.02-3.16,4.01-17.34-2.27-20.54,5.41-.95,2.29-.98,16.57,0,18.91ZM213.27,179.71c-.02-12.92-9.11-26.12-21.33-30.36-7.89-2.74-52.58-9.32-60.64-8.69-12.15.94-24.43,10.15-28.23,21.73-2.82,8.6-9.32,53.91-8.25,62.08,1.5,11.52,11.48,23.02,22.69,26.21,10.84,3.09,52.99,8.79,63.33,7.38,12.17-1.66,22.25-13.54,24.9-25.01,2.59-11.21,7.56-42.45,7.54-53.33ZM268.59,190.5c-2.65-.77-29.42-.69-32.53,0-7.5,1.67-7.77,14.11-.76,16.3,3.3,1.03,27.37,1.03,31.45.39,9.11-1.44,8.45-14.78,1.85-16.7ZM401.82,166.12c-3.79-15.87-17.39-26.22-33.85-25.45-10.7.5-53.15,6.43-61.06,10.88-12.68,7.13-16.42,19.46-15.64,33.24.67,11.8,5.51,48.05,10.46,57.4,4.38,8.28,13.55,14.97,22.99,15.94,10.29,1.05,51.88-4.48,62.19-7.67,10.58-3.27,20.73-14.89,22.06-25.85,1.19-9.86-4.57-47.62-7.16-58.48ZM451.01,286.07c-2.06-29.74-4.96-59.65-10.29-88.98-3.04-16.74-9.16-48.31-19.24-61.59-14.44-19.01-38.87-17.33-60.29-20.08,9.58-58.65-77.4-59.7-68.94-.96l-80.87-1c7.58-31.8-29.85-56.04-55.93-35.42-12.1,9.57-15.83,23.1-13.19,37.98-20.05.55-45.54,1.42-59.21,18.37-8.27,10.25-13.18,30.8-16.14,43.74-8.02,35.16-11.22,72.02-14.28,107.94l1.98-7.48c2.2-27.87,5.22-55.87,10.47-83.33,3.17-16.6,9.61-49.69,20.95-61.88,13.62-14.63,38.06-13.75,56.73-15.26,4.22,6.24,7.03,11.54,13.37,16.13,19.86,14.36,46.75,4.54,54.88-17.84l81.8,1.12c-.31.01,1.85,4.23,4.99,8.84,13.15,19.29,43.5,19.36,57.35.56,2.04-2.77,5.79-9.57,5.79-9.57,19.13,2.2,43.04,1.16,57.14,16.53,9,9.81,14.7,33.15,17.64,46.23,7.04,31.37,10.49,64.43,13.3,96.47l1.98,9.48ZM261.21,59.1c0-1.95-1.58-3.55-3.53-3.55s-3.55,1.6-3.55,3.55,1.58,3.55,3.55,3.55,3.53-1.6,3.53-3.55ZM405.82,83.76c-9.73,1.97-10.53,17.58-1.79,20.28,19.6,6.04,20.24-24.02,1.79-20.28ZM442.08,76.1c12.51-9.56-4.86-27.32-14.71-16.2-8.27,9.34,3.73,24.6,14.71,16.2ZM412.11,51.13c11.18-2.92,9.04-20.97-3.53-20.97-16.11,0-12.83,25.24,3.53,20.97ZM382.5,78.51c15.6-.99,12.33-24.55-2.62-21.73-13.31,2.51-10.17,22.55,2.62,21.73ZM354.17,30.65h-22.97v3.99h22.97v-3.99ZM149.67,34.7h22.97v-3.99h-.2v-.06s-22.96,0-22.96,0v3.99h.19v.06Z" />
        <g id="eyes_pupils" fill="var(--eyes-color, black)">
            <ellipse
                style="transform: translate(-15px, -8px)"
                cx="326.58" cy="106.34" rx="9.48" ry="13.12" />
            <ellipse
                style="transform: translate(-15px, -8px)"
                cx="177.09" cy="106.11" rx="9.48" ry="13.12" />
        </g>
    </g>
</svg>